<?xml version="1.0" encoding="UTF-8"?>
<svg width="512px" height="512px" viewBox="0 0 512 512" version="1.1" xmlns="http://www.w3.org/2000/svg" xmlns:xlink="http://www.w3.org/1999/xlink">
    <title>OP_AppIcon_Rounded_01_Purple</title>
    <g id="OP_AppIcon_Rounded_01_Purple" stroke="none" stroke-width="1" fill="none" fill-rule="evenodd">
        <path d="M128.19426,-5.17920154e-15 L383.80574,5.17920154e-15 C428.381677,-3.00926524e-15 444.545989,4.64128056 460.842285,13.3566352 C477.138581,22.0719898 489.92801,34.8614185 498.643365,51.1577148 C507.358719,67.4540111 512,83.618323 512,128.19426 L512,383.80574 C512,428.381677 507.358719,444.545989 498.643365,460.842285 C489.92801,477.138581 477.138581,489.92801 460.842285,498.643365 C444.545989,507.358719 428.381677,512 383.80574,512 L128.19426,512 C83.618323,512 67.4540111,507.358719 51.1577148,498.643365 C34.8614185,489.92801 22.0719898,477.138581 13.3566352,460.842285 C4.64128056,444.545989 2.00617683e-15,428.381677 -3.45280103e-15,383.80574 L3.45280103e-15,128.19426 C-2.00617683e-15,83.618323 4.64128056,67.4540111 13.3566352,51.1577148 C22.0719898,34.8614185 34.8614185,22.0719898 51.1577148,13.3566352 C67.4540111,4.64128056 83.618323,3.00926524e-15 128.19426,-5.17920154e-15 Z" id="Bg" fill="#6333FF"></path>
        <path d="M296.099755,149 C344.702011,149.010471 387.181692,181.827788 399.499517,228.880663 C411.817343,275.933537 390.873443,325.380774 348.519985,349.240148 C306.166527,373.099523 253.062064,365.366651 219.258447,330.417571 C249.546139,318.153891 269.369955,288.725251 269.369955,256.026567 C269.369955,223.327883 249.546139,193.899242 219.258447,181.635563 C239.172676,160.963418 266.563773,149.207917 295.230677,149.002681 L296.099755,149 Z M125.436008,207.349372 C147.350686,178.603584 185.767304,168.074785 219.258447,181.635563 C179.153465,223.108762 179.153465,288.944372 219.258447,330.417571 C185.767304,343.978348 147.350686,333.449549 125.436008,304.703762 C103.521331,275.957974 103.521331,236.09516 125.436008,207.349372 Z" id="Logo" fill="#FFFFFF" fill-rule="nonzero"></path>
    </g>
</svg>