<?xml version="1.0" standalone="no"?>
<!DOCTYPE svg PUBLIC "-//W3C//DTD SVG 20010904//EN"
 "http://www.w3.org/TR/2001/REC-SVG-20010904/DTD/svg10.dtd">
<svg version="1.0" xmlns="http://www.w3.org/2000/svg"
 width="880.000000pt" height="880.000000pt" viewBox="0 0 880.000000 880.000000"
 preserveAspectRatio="xMidYMid meet">

<g transform="translate(0.000000,880.000000) scale(0.100000,-0.100000)"
fill="#000000" stroke="none">
<path d="M5 4400 c0 -2423 1 -3994 2 -3492 2 602 6 911 13 907 6 -3 10 -23 10
-43 0 -58 39 -234 79 -357 100 -309 256 -561 495 -801 106 -106 301 -265 346
-282 8 -3 38 -20 65 -37 69 -43 227 -118 305 -144 36 -12 74 -26 85 -31 19 -7
33 -11 160 -44 69 -17 154 -32 275 -46 116 -14 5004 -14 5120 0 121 14 206 29
275 46 127 33 141 37 160 45 11 4 52 19 90 32 244 86 503 253 710 461 129 129
216 238 299 375 52 86 132 245 155 311 7 19 17 44 21 55 39 98 75 247 99 409
21 137 21 164 21 2631 0 2467 0 2494 -21 2631 -24 162 -60 311 -99 409 -4 11
-14 36 -21 55 -46 129 -171 350 -273 485 -65 86 -266 292 -331 340 -22 17 -42
32 -45 36 -13 14 -142 101 -210 141 -103 60 -233 121 -315 149 -22 7 -44 16
-50 19 -10 7 -72 25 -137 41 -21 5 -55 14 -75 19 -152 41 -113 40 -2813 40
-2700 0 -2661 1 -2812 -40 -21 -5 -57 -15 -80 -21 -160 -40 -338 -114 -503
-208 -47 -27 -194 -129 -213 -148 -7 -7 -17 -13 -22 -13 -20 0 -293 -283 -358
-370 -159 -215 -273 -452 -337 -700 -25 -100 -45 -204 -45 -242 0 -20 -4 -40
-10 -43 -7 -4 -11 306 -13 912 -1 505 -2 -1064 -2 -3487z m5729 3448 c10 -154
17 -202 31 -218 7 -8 15 -31 18 -50 8 -54 18 -93 27 -115 5 -11 18 -47 30 -80
42 -116 87 -210 149 -310 28 -44 54 -84 58 -90 5 -5 22 -28 38 -50 34 -46 237
-252 276 -281 15 -10 62 -46 105 -80 67 -51 221 -139 289 -164 11 -4 31 -12
45 -18 122 -53 272 -87 460 -103 69 -6 129 -15 134 -19 5 -5 9 -269 10 -597
l1 -588 -90 1 c-124 1 -350 25 -485 53 -120 24 -148 31 -171 39 -13 6 -44 16
-69 22 -126 35 -256 83 -333 121 -22 10 -45 19 -53 19 -8 0 -14 5 -14 10 0 6
-7 10 -14 10 -8 0 -37 12 -63 26 -26 15 -82 44 -123 66 -41 22 -82 47 -91 54
-8 8 -21 14 -27 14 -7 0 -12 4 -12 8 0 5 -12 15 -27 23 -16 7 -39 21 -52 31
-13 10 -28 18 -32 18 -5 0 -9 -559 -9 -1262 -1 -744 -5 -1293 -10 -1335 -17
-129 -30 -207 -41 -258 -5 -27 -13 -67 -16 -88 -3 -20 -9 -40 -14 -43 -5 -3
-9 -15 -9 -27 0 -12 -9 -47 -21 -77 -12 -30 -23 -65 -26 -78 -3 -12 -9 -25
-14 -28 -5 -3 -9 -12 -9 -21 0 -24 -121 -269 -175 -353 -110 -174 -278 -375
-401 -480 -63 -55 -135 -114 -159 -130 -167 -115 -234 -156 -340 -207 -38 -18
-87 -42 -108 -53 -22 -11 -45 -20 -53 -20 -8 0 -22 -4 -32 -9 -58 -31 -165
-66 -237 -77 -16 -3 -39 -9 -50 -14 -21 -9 -51 -15 -150 -30 -33 -5 -89 -14
-125 -19 -150 -24 -470 -9 -638 29 -23 6 -55 10 -72 10 -16 0 -32 5 -35 10 -3
6 -16 10 -27 10 -23 0 -45 6 -143 40 -33 12 -82 29 -110 38 -27 9 -52 20 -53
24 -2 4 -10 8 -18 8 -8 0 -22 5 -32 10 -9 6 -37 19 -62 30 -60 26 -168 86
-207 116 -17 13 -35 24 -38 24 -4 0 -12 6 -20 12 -7 7 -36 31 -65 53 -206 157
-335 285 -486 480 -59 77 -214 334 -214 355 0 4 -9 25 -19 47 -22 43 -42 92
-61 143 -6 19 -15 44 -20 55 -12 33 -37 124 -63 230 -9 33 -20 98 -27 145 -6
47 -15 115 -21 152 -12 88 -12 257 1 355 25 192 33 243 52 313 11 41 24 91 28
110 28 121 135 373 207 488 18 29 33 55 33 57 0 3 21 35 47 73 189 270 380
457 640 625 102 66 291 165 365 191 24 8 75 27 113 42 39 14 86 30 105 35 19
4 53 13 75 18 237 59 464 80 672 62 81 -7 150 -15 152 -17 2 -2 4 -275 5 -606
l1 -603 -30 2 c-16 1 -79 10 -139 19 -96 15 -123 16 -220 5 -111 -12 -199 -30
-212 -44 -4 -4 -16 -7 -26 -7 -10 0 -26 -4 -36 -9 -9 -5 -52 -26 -94 -47 -43
-22 -78 -42 -78 -46 0 -5 -6 -8 -12 -8 -34 0 -288 -251 -288 -284 0 -5 -11
-24 -25 -42 -14 -18 -25 -35 -25 -38 0 -4 -9 -28 -21 -54 -42 -94 -46 -106
-70 -205 -25 -102 -27 -324 -3 -406 9 -31 21 -74 27 -96 6 -22 14 -44 19 -50
4 -5 8 -17 8 -26 0 -26 92 -194 120 -219 3 -3 17 -21 32 -40 37 -49 87 -101
128 -132 19 -14 45 -35 57 -47 12 -12 25 -21 29 -21 4 0 29 -16 56 -35 169
-122 462 -177 688 -129 41 9 90 18 108 21 18 3 35 9 38 14 3 5 12 9 19 9 25 0
219 98 235 119 3 3 23 19 45 35 147 106 295 324 345 506 7 25 17 59 23 75 11
30 23 1902 26 4068 l1 897 594 0 594 0 6 -92z"/>
</g>
</svg>
